<svg width="151" height="43" viewBox="0 0 151 43" fill="none" xmlns="http://www.w3.org/2000/svg">
<g clip-path="url(#clip0_964_17563)">
<g clip-path="url(#clip1_964_17563)">
<path d="M50.5386 3.29318L43.57 4.75682L43.5378 27.4114C43.5378 31.5955 46.7244 34.3 50.957 34.3C53.3067 34.3 55.0288 33.8705 55.9783 33.3614V27.9841C55.0609 28.35 50.5547 29.6546 50.5547 25.4864V15.4318H55.9783V9.41818H50.5547L50.5386 3.29318ZM64.8781 11.5023L64.4436 9.41818H58.2636V33.7909H65.3931V17.3886C67.083 15.1932 69.9316 15.6227 70.8489 15.9091V9.41818C69.8833 9.08409 66.5519 8.46364 64.8781 11.5023ZM79.7327 0L72.5548 1.51136V7.27045L79.7327 5.75909V0ZM31.21 16.5932C31.21 15.4955 32.1434 15.0659 33.6402 15.05C35.8128 15.05 38.5809 15.7023 40.7536 16.8636V10.2136C38.3878 9.29091 36.022 8.925 33.6563 8.925C27.8625 8.925 24 11.9159 24 16.9114C24 24.7386 34.8633 23.4659 34.8633 26.8386C34.8633 28.1432 33.7206 28.5727 32.1273 28.5727C29.7616 28.5727 26.7038 27.6023 24.3058 26.3136V32.6773C26.9613 33.8068 29.6489 34.2841 32.1113 34.2841C38.0498 34.2841 42.1377 31.7705 42.1377 26.6796C42.1377 18.2636 31.21 19.775 31.21 16.5932ZM126.984 21.8909C126.984 14.6523 123.443 8.94091 116.652 8.94091C109.86 8.94091 105.724 14.6523 105.724 21.8432C105.724 30.3545 110.6 34.2841 117.553 34.2841C120.965 34.2841 123.524 33.5205 125.471 32.4545V27.1409C123.524 28.1114 121.287 28.7 118.454 28.7C115.67 28.7 113.224 27.7295 112.902 24.4205H126.887C126.92 24.0545 126.984 22.575 126.984 21.8909ZM112.838 19.2182C112.838 16.0364 114.817 14.7 116.603 14.7C118.358 14.7 120.225 16.0364 120.225 19.2182H112.838ZM94.6677 8.94091C91.8674 8.94091 90.0648 10.2455 89.067 11.1523L88.6969 9.40227H82.4042V41.9841L89.5499 40.4886L89.5659 32.5023C90.5959 33.25 92.1248 34.2841 94.6194 34.2841C99.7372 34.2841 104.404 30.5932 104.404 21.6205C104.42 13.4114 99.6889 8.94091 94.6677 8.94091ZM92.9617 28.4296C91.288 28.4296 90.2902 27.825 89.5981 27.0932L89.5499 16.5932C90.2902 15.7818 91.3202 15.1932 92.9617 15.1932C95.5689 15.1932 97.3714 18.0886 97.3714 21.7795C97.3875 25.5818 95.6172 28.4296 92.9617 28.4296ZM72.5709 33.7909H79.7488V9.41818H72.5709V33.7909Z" fill="#737373"/>
</g>
</g>
<defs>
<clipPath id="clip0_964_17563">
<rect width="151" height="42" fill="white" transform="translate(0 0.5)"/>
</clipPath>
<clipPath id="clip1_964_17563">
<rect width="103" height="42" fill="white" transform="translate(24 0.5)"/>
</clipPath>
</defs>
</svg>
